<svg width="134" height="19" viewBox="0 0 134 19" fill="none" xmlns="http://www.w3.org/2000/svg">
<g clip-path="url(#clip0_7_34)">
<mask id="mask0_7_34" style="mask-type:luminance" maskUnits="userSpaceOnUse" x="0" y="0" width="134" height="19">
<path d="M0 0.664833H134V18.3352H0V0.664833Z" fill="white"/>
</mask>
<g mask="url(#mask0_7_34)">
<path d="M127.517 1.28035L127.461 1.16696H123.529L129.73 17.6048V17.7196H133.719L127.517 1.28035ZM116.936 1.22439L112.117 17.7196H115.773L119.54 5.51975H124.027L122.42 1.16549L116.936 1.22439ZM3.4414 9.07002L3.38545 9.01259V5.86285L5.27028 3.80131H16.7354L22.2736 9.47054V3.91764L19.5052 1.22439L2.38707 1.16549L-0.1604 3.91617V7.52386L3.43993 11.4187L3.4414 9.07002Z" fill="#30363A"/>
<path d="M18.7292 13.0797H18.6732V13.1946L16.6794 15.0264H5.21433L-0.161865 8.95516V14.9704L2.60943 17.7196H19.5037L22.328 14.913V10.9607L18.7292 7.40901V13.0797ZM60.6049 9.07002L60.549 9.01259V5.86285L62.4323 3.80131H73.8429L79.3811 9.47054V3.91764L76.6673 1.22439L59.5521 1.16549L56.9486 3.91617V7.52386L60.6049 11.4187V9.07002Z" fill="#30363A"/>
<path d="M75.8913 13.0797H75.8368V13.1946L73.843 15.0264H62.3765L56.9487 8.95516V14.9704L59.7171 17.7196H76.6673L79.4357 14.913V10.9607L75.8928 7.40901L75.8913 13.0797ZM42.2706 1.16549L40.1089 12.6218L40.9954 17.6622L42.4915 17.7196L44.6517 5.51975H47.3655V17.833H50.9659V3.9736L48.4758 1.16549H42.272H42.2706ZM30.4712 1.22439L28.0342 4.08698V17.7756H31.6905V5.57718H34.4043L36.3981 17.833H40.0544L37.0637 1.22439H30.4712ZM100.873 1.16549L104.584 4.14441V13.1371L101.926 15.0264H89.5181V3.91617H102.535L99.1558 1.16549H85.7514V17.7167H105.582L108.24 14.969V3.91617L104.862 1.16549H100.873Z" fill="#30363A"/>
</g>
</g>
<defs>
<clipPath id="clip0_7_34">
<rect width="134" height="17.6703" fill="white" transform="translate(0 0.664833)"/>
</clipPath>
</defs>
</svg>
